<svg xmlns="http://www.w3.org/2000/svg" viewBox="0 0 64 64" width="64" height="64">
  <!-- Background circle with gradient -->
  <defs>
    <linearGradient id="bg-gradient" x1="0%" y1="0%" x2="100%" y2="100%">
      <stop offset="0%" style="stop-color:#3B82F6;stop-opacity:1" />
      <stop offset="100%" style="stop-color:#1E40AF;stop-opacity:1" />
    </linearGradient>
    <linearGradient id="coin-gradient" x1="0%" y1="0%" x2="100%" y2="100%">
      <stop offset="0%" style="stop-color:#FCD34D;stop-opacity:1" />
      <stop offset="100%" style="stop-color:#F59E0B;stop-opacity:1" />
    </linearGradient>
  </defs>
  
  <!-- Main background -->
  <circle cx="32" cy="32" r="30" fill="url(#bg-gradient)" stroke="#1E40AF" stroke-width="2"/>
  
  <!-- Piggy bank body -->
  <ellipse cx="32" cy="35" rx="18" ry="12" fill="#FFB3BA" stroke="#FF8A95" stroke-width="1.5"/>
  
  <!-- Piggy bank snout -->
  <ellipse cx="48" cy="33" rx="4" ry="3" fill="#FFB3BA" stroke="#FF8A95" stroke-width="1"/>
  
  <!-- Piggy bank legs -->
  <rect x="20" y="45" width="3" height="6" rx="1.5" fill="#FF8A95"/>
  <rect x="26" y="45" width="3" height="6" rx="1.5" fill="#FF8A95"/>
  <rect x="35" y="45" width="3" height="6" rx="1.5" fill="#FF8A95"/>
  <rect x="41" y="45" width="3" height="6" rx="1.5" fill="#FF8A95"/>
  
  <!-- Piggy bank ear -->
  <ellipse cx="25" cy="26" rx="2.5" ry="3" fill="#FFB3BA" stroke="#FF8A95" stroke-width="1"/>
  
  <!-- Piggy bank eye -->
  <circle cx="28" cy="30" r="1.5" fill="#333"/>
  
  <!-- Coin slot on top -->
  <rect x="30" y="22" width="4" height="1.5" rx="0.75" fill="#333"/>
  
  <!-- Rupee coin above the piggy bank -->
  <circle cx="32" cy="15" r="8" fill="url(#coin-gradient)" stroke="#D97706" stroke-width="1.5"/>
  
  <!-- Rupee symbol inside coin -->
  <path d="M26 12 L26 10 L36 10 M26 14 L36 14 M26 12 L32 12 C34 12 35 13 35 15 C35 17 34 18 32 18 L26 18 L38 21" 
        stroke="white" stroke-width="1.5" fill="none" stroke-linecap="round" stroke-linejoin="round"/>
        
  <!-- Small sparkles around -->
  <circle cx="18" cy="20" r="1" fill="#FCD34D" opacity="0.8"/>
  <circle cx="46" cy="18" r="1" fill="#FCD34D" opacity="0.8"/>
  <circle cx="20" cy="45" r="0.8" fill="#FCD34D" opacity="0.6"/>
  <circle cx="44" cy="48" r="0.8" fill="#FCD34D" opacity="0.6"/>
</svg>
